<svg xmlns="http://www.w3.org/2000/svg" xmlns:xlink="http://www.w3.org/1999/xlink" xmlns:inkscape="http://www.inkscape.org/namespaces/inkscape" version="1.1" width="500" height="500" viewBox="0 0 500 500">
<defs>
<clipPath id="clip_1">
<path transform="matrix(1,0,0,-1,0,500)" d="M0 500H500V0H0Z"/>
</clipPath>
</defs>
<g inkscape:groupmode="layer" inkscape:label="Layer 1">
<g clip-path="url(#clip_1)">
<path transform="matrix(1,0,0,-1,221.5571,276.3203)" d="M0 0C.254 .022 .516 .054 .781 .098 3.115 .48 4.875 1.596 4.711 2.592 4.605 3.239 3.708 3.676 2.447 3.794 4.436 3.961 6.042 3.473 6.187 2.592 6.35 1.596 4.591 .48 2.257 .098 1.446-.035 .671-.062 0 0M15.635-20.479C17.37-20.794 19.218-20.964 21.137-20.964 30.997-20.964 38.99-16.493 38.99-10.979 38.99-8.134 36.862-5.565 33.448-3.746 40.615-5.043 45.799-8.807 45.799-13.247 45.799-18.762 37.807-23.233 27.946-23.233 23.173-23.233 18.839-22.187 15.635-20.479M-23.744-14.612C-23.347-14.501-22.938-14.357-22.528-14.185-20.08-13.15-18.471-11.421-18.935-10.322-19.204-9.688-20.105-9.402-21.291-9.473-19.319-8.914-17.619-9.105-17.232-10.02-16.769-11.119-18.377-12.849-20.826-13.882-21.86-14.318-22.876-14.562-23.744-14.612M51.087-25.174C51.454-25.418 51.859-25.641 52.298-25.83 54.553-26.81 56.826-26.579 57.372-25.317 57.655-24.667 57.423-23.868 56.823-23.114 58.333-24.121 59.145-25.497 58.706-26.512 58.158-27.773 55.886-28.003 53.63-27.025 52.54-26.551 51.651-25.882 51.087-25.174M51.512-41.19C52.196-41.646 52.954-42.062 53.774-42.418 57.987-44.244 62.231-43.814 63.252-41.459 63.781-40.243 63.346-38.751 62.225-37.342 65.046-39.224 66.565-41.793 65.741-43.689 64.718-46.046 60.475-46.476 56.262-44.648 54.223-43.764 52.565-42.513 51.512-41.19M-15.641-21.195C-15.211-21.109-14.766-20.98-14.321-20.804-12.034-19.899-10.591-18.131-11.095-16.853-11.357-16.192-12.084-15.793-13.043-15.683-11.262-15.327-9.716-15.726-9.309-16.754-8.804-18.034-10.249-19.803-12.535-20.707-13.642-21.143-14.742-21.298-15.641-21.195M-4.015-32.22C-3.21-32.059-2.381-31.817-1.549-31.488 2.722-29.802 5.42-26.497 4.476-24.109 3.989-22.876 2.628-22.128 .838-21.924 4.165-21.26 7.054-22.003 7.813-23.927 8.757-26.316 6.06-29.619 1.79-31.307-.278-32.123-2.335-32.411-4.015-32.22M20.036 4.494C15.633 4.494 11.326 4.204 7.125 3.645 6.101 4.475 3.782 4.802 1.198 4.377-1.7 3.902-3.978 2.637-4.378 1.381-24.201-3.83-41.094-15.295-53.547-30.767-46.342-24.251-38.125-18.831-29.164-14.772-29.448-13.077-27.054-10.653-23.528-9.166-19.755-7.573-16.118-7.655-15.403-9.349-15.349-9.48-15.311-9.617-15.294-9.76-8.01-7.76-.374-6.61 7.502-6.427 11.658-2.537 19.258 .066 27.946 .066 41.092 .066 51.751-5.896 51.751-13.247 51.751-14.188 51.575-15.105 51.245-15.99 65.009-22.74 76.893-32.739 85.89-44.992 89.698-41.403 93.042-37.628 95.839-33.634 78.633-10.497 50.434 4.494 20.036 4.494" fill="#000080" fill-rule="evenodd"/>
<path transform="matrix(1,0,0,-1,279.2051,153.21039)" d="M0 0 5.141-3.057C5.627-3.346 6.205-3.319 6.661-2.988 7.118-2.656 7.322-2.116 7.198-1.564L5.879 4.271C5.765 4.78 5.925 5.272 6.316 5.615L10.813 9.562C11.236 9.932 11.391 10.491 11.215 11.028 11.042 11.566 10.588 11.928 10.025 11.978L4.07 12.528C3.553 12.575 3.131 12.881 2.927 13.36L.563 18.854C.341 19.374-.142 19.692-.707 19.692-1.273 19.692-1.756 19.374-1.979 18.854L-4.343 13.36C-4.548 12.881-4.969 12.575-5.485 12.528L-11.441 11.978C-12.004 11.928-12.458 11.566-12.632 11.028-12.804 10.491-12.652 9.932-12.227 9.562L-7.732 5.615C-7.341 5.272-7.18 4.78-7.295 4.271L-8.614-1.564C-8.737-2.116-8.533-2.656-8.076-2.988-7.619-3.319-7.041-3.346-6.556-3.057L-1.416 0C-.967 .266-.449 .266 0 0" fill="#e54490" fill-rule="evenodd"/>
<path transform="matrix(1,0,0,-1,242.0557,92.58981)" d="M0 0 5.141-3.056C5.628-3.346 6.206-3.319 6.662-2.988 7.12-2.657 7.323-2.115 7.199-1.564L5.879 4.271C5.765 4.779 5.926 5.273 6.317 5.616L10.814 9.561C11.237 9.932 11.392 10.491 11.217 11.028 11.042 11.566 10.589 11.927 10.025 11.979L4.07 12.528C3.553 12.576 3.133 12.881 2.927 13.36L.564 18.854C.343 19.374-.141 19.691-.707 19.691-1.273 19.691-1.754 19.374-1.979 18.854L-4.342 13.36C-4.547 12.881-4.967 12.576-5.484 12.528L-11.44 11.979C-12.003 11.927-12.457 11.566-12.631 11.028-12.803 10.491-12.652 9.932-12.226 9.561L-7.731 5.616C-7.34 5.273-7.178 4.779-7.293 4.271L-8.613-1.564C-8.736-2.115-8.533-2.657-8.076-2.988-7.617-3.319-7.041-3.346-6.555-3.056L-1.414 0C-.966 .266-.448 .266 0 0" fill="#1eb6cd" fill-rule="evenodd"/>
<path transform="matrix(1,0,0,-1,271.8896,76.23541)" d="M0 0 5.14-3.057C5.627-3.346 6.204-3.319 6.66-2.988 7.118-2.656 7.321-2.116 7.197-1.564L5.878 4.27C5.764 4.779 5.925 5.272 6.315 5.615L10.813 9.561C11.236 9.932 11.39 10.491 11.216 11.028 11.041 11.566 10.588 11.928 10.025 11.979L4.069 12.528C3.552 12.575 3.132 12.88 2.927 13.36L.562 18.855C.341 19.374-.143 19.691-.709 19.691-1.274 19.691-1.756 19.374-1.979 18.855L-4.344 13.36C-4.549 12.88-4.969 12.575-5.486 12.528L-11.441 11.979C-12.005 11.928-12.458 11.566-12.633 11.028-12.806 10.491-12.653 9.932-12.228 9.561L-7.732 5.615C-7.341 5.272-7.18 4.779-7.295 4.27L-8.614-1.564C-8.738-2.116-8.534-2.656-8.077-2.988-7.619-3.319-7.043-3.346-6.557-3.057L-1.416 0C-.968 .266-.449 .266 0 0" fill="#a9569c" fill-rule="evenodd"/>
<path transform="matrix(1,0,0,-1,302.3281,91.21481)" d="M0 0 5.141-3.058C5.627-3.346 6.205-3.319 6.661-2.988 7.119-2.656 7.322-2.116 7.198-1.564L5.88 4.271C5.765 4.779 5.926 5.272 6.316 5.615L10.814 9.562C11.237 9.933 11.392 10.491 11.216 11.028 11.042 11.566 10.588 11.927 10.026 11.978L4.07 12.528C3.553 12.575 3.133 12.881 2.927 13.36L.563 18.854C.343 19.374-.142 19.692-.707 19.692-1.271 19.692-1.755 19.374-1.979 18.854L-4.343 13.36C-4.547 12.881-4.967 12.575-5.484 12.528L-11.439 11.978C-12.004 11.927-12.457 11.566-12.631 11.028-12.804 10.491-12.651 9.933-12.226 9.562L-7.732 5.615C-7.34 5.272-7.178 4.779-7.294 4.271L-8.614-1.564C-8.736-2.116-8.533-2.656-8.076-2.988-7.618-3.319-7.041-3.346-6.555-3.058L-1.414 0C-.967 .266-.449 .266 0 0" fill="#f6a43b" fill-rule="evenodd"/>
<path transform="matrix(1,0,0,-1,305.1982,135.21881)" d="M0 0 5.14-3.057C5.627-3.344 6.204-3.318 6.66-2.987 7.119-2.656 7.322-2.116 7.197-1.564L5.878 4.272C5.765 4.78 5.924 5.273 6.315 5.616L10.813 9.562C11.236 9.934 11.391 10.493 11.216 11.029 11.041 11.566 10.589 11.929 10.026 11.979L4.069 12.529C3.552 12.575 3.132 12.881 2.927 13.36L.563 18.855C.342 19.374-.143 19.692-.708 19.692-1.273 19.692-1.756 19.374-1.979 18.855L-4.343 13.36C-4.548 12.881-4.969 12.575-5.485 12.529L-11.441 11.979C-12.005 11.929-12.457 11.566-12.632 11.029-12.805 10.493-12.653 9.934-12.227 9.562L-7.732 5.616C-7.341 5.273-7.179 4.78-7.295 4.272L-8.614-1.564C-8.737-2.116-8.534-2.656-8.077-2.987-7.619-3.318-7.041-3.344-6.557-3.057L-1.415 0C-.968 .267-.449 .267 0 0" fill="#a9569c" fill-rule="evenodd"/>
<path transform="matrix(1,0,0,-1,305.3223,168.7568)" d="M0 0 3.141-1.868C3.438-2.043 3.791-2.029 4.069-1.826 4.35-1.623 4.475-1.293 4.397-.955L3.593 2.61C3.521 2.92 3.62 3.222 3.858 3.431L6.605 5.842C6.865 6.069 6.959 6.41 6.853 6.738 6.746 7.066 6.47 7.288 6.126 7.319L2.486 7.656C2.17 7.683 1.914 7.87 1.788 8.162L.344 11.521C.208 11.837-.087 12.032-.433 12.032-.778 12.032-1.072 11.837-1.209 11.521L-2.654 8.162C-2.779 7.87-3.036 7.683-3.352 7.656L-6.99 7.319C-7.336 7.288-7.612 7.066-7.719 6.738-7.825 6.41-7.731 6.069-7.471 5.842L-4.725 3.431C-4.485 3.222-4.388 2.92-4.457 2.61L-5.264-.955C-5.339-1.293-5.215-1.623-4.936-1.826-4.656-2.029-4.303-2.043-4.006-1.868L-.864 0C-.59 .163-.274 .163 0 0" fill="#eb6670" fill-rule="evenodd"/>
<path transform="matrix(1,0,0,-1,262.2861,172.6099)" d="M0 0 3.14-1.868C3.438-2.044 3.789-2.027 4.069-1.826 4.348-1.624 4.472-1.292 4.396-.954L3.591 2.61C3.521 2.92 3.618 3.222 3.858 3.432L6.605 5.842C6.865 6.069 6.959 6.409 6.853 6.739 6.745 7.067 6.468 7.287 6.125 7.319L2.485 7.656C2.17 7.685 1.911 7.87 1.786 8.163L.342 11.521C.207 11.838-.088 12.032-.433 12.032-.779 12.032-1.075 11.838-1.211 11.521L-2.654 8.163C-2.779 7.871-3.037 7.684-3.354 7.656L-6.992 7.319C-7.336 7.287-7.612 7.067-7.719 6.739-7.825 6.409-7.731 6.069-7.472 5.842L-4.726 3.432C-4.486 3.222-4.389 2.919-4.458 2.61L-5.265-.954C-5.34-1.292-5.215-1.624-4.937-1.826-4.656-2.027-4.305-2.044-4.007-1.868L-.865 0C-.592 .164-.274 .164 0 0" fill="#f6a43b" fill-rule="evenodd"/>
<path transform="matrix(1,0,0,-1,213.2207,94.7446)" d="M0 0 2.431-1.445C2.661-1.583 2.934-1.57 3.149-1.414 3.367-1.255 3.463-1 3.404-.738L2.78 2.021C2.726 2.26 2.802 2.494 2.987 2.656L5.114 4.522C5.315 4.699 5.388 4.962 5.304 5.216 5.222 5.471 5.008 5.642 4.742 5.667L1.925 5.925C1.68 5.947 1.482 6.094 1.385 6.319L.267 8.917C.161 9.163-.067 9.313-.334 9.313-.602 9.313-.831 9.163-.936 8.917L-2.054 6.319C-2.151 6.094-2.35 5.947-2.594 5.925L-5.412 5.667C-5.677 5.642-5.892 5.471-5.974 5.216-6.056 4.962-5.984 4.699-5.783 4.522L-3.657 2.656C-3.471 2.494-3.396 2.26-3.451 2.021L-4.074-.738C-4.132-1-4.037-1.255-3.82-1.414-3.604-1.57-3.331-1.583-3.102-1.445L-.67 0C-.458 .126-.212 .126 0 0" fill="#a9569c" fill-rule="evenodd"/>
<path transform="matrix(1,0,0,-1,322.0742,106.0972)" d="M0 0 3.142-1.868C3.438-2.045 3.792-2.029 4.069-1.826 4.35-1.624 4.475-1.292 4.398-.954L3.592 2.61C3.522 2.92 3.62 3.221 3.858 3.432L6.607 5.842C6.865 6.069 6.959 6.411 6.853 6.738 6.746 7.066 6.47 7.288 6.126 7.319L2.487 7.654C2.17 7.684 1.914 7.87 1.788 8.163L.344 11.52C.209 11.838-.087 12.032-.433 12.032-.777 12.032-1.072 11.838-1.209 11.52L-2.653 8.163C-2.778 7.87-3.035 7.684-3.351 7.654L-6.99 7.319C-7.335 7.288-7.611 7.066-7.718 6.738-7.824 6.411-7.73 6.069-7.471 5.842L-4.724 3.432C-4.484 3.221-4.387 2.92-4.456 2.61L-5.263-.954C-5.338-1.292-5.215-1.624-4.935-1.826-4.655-2.029-4.303-2.045-4.005-1.868L-.864 0C-.59 .164-.273 .164 0 0" fill="#e54490" fill-rule="evenodd"/>
<path transform="matrix(1,0,0,-1,297.293,61.393098)" d="M0 0 3.14-1.868C3.437-2.045 3.79-2.029 4.068-1.826 4.349-1.624 4.473-1.292 4.396-.956L3.591 2.609C3.521 2.919 3.618 3.221 3.858 3.431L6.605 5.841C6.865 6.069 6.959 6.411 6.853 6.738 6.746 7.067 6.469 7.288 6.125 7.318L2.485 7.655C2.17 7.684 1.913 7.87 1.788 8.163L.344 11.52C.208 11.837-.088 12.03-.434 12.03-.779 12.03-1.074 11.837-1.211 11.52L-2.654 8.163C-2.78 7.87-3.037 7.684-3.354 7.655L-6.991 7.318C-7.336 7.288-7.612 7.067-7.719 6.738-7.825 6.411-7.731 6.069-7.472 5.841L-4.725 3.431C-4.486 3.221-4.388 2.919-4.458 2.609L-5.265-.956C-5.34-1.292-5.215-1.624-4.935-1.826-4.656-2.029-4.304-2.045-4.007-1.868L-.865 0C-.592 .162-.275 .162 0 0" fill="#e54490" fill-rule="evenodd"/>
<path transform="matrix(1,0,0,-1,235.5747,65.17871)" d="M0 0 3.141-1.868C3.438-2.045 3.792-2.028 4.069-1.826 4.349-1.624 4.474-1.292 4.398-.955L3.592 2.61C3.521 2.92 3.62 3.221 3.858 3.432L6.607 5.842C6.866 6.069 6.959 6.411 6.853 6.738 6.746 7.066 6.469 7.288 6.125 7.319L2.487 7.655C2.17 7.684 1.914 7.87 1.788 8.163L.344 11.521C.208 11.837-.087 12.032-.433 12.032-.778 12.032-1.073 11.837-1.209 11.521L-2.654 8.163C-2.779 7.87-3.036 7.684-3.352 7.655L-6.991 7.319C-7.335 7.288-7.61 7.066-7.718 6.738-7.825 6.411-7.731 6.069-7.471 5.842L-4.724 3.432C-4.485 3.221-4.388 2.92-4.457 2.61L-5.263-.955C-5.339-1.292-5.214-1.624-4.935-1.826-4.656-2.028-4.303-2.045-4.005-1.868L-.864 0C-.59 .163-.274 .163 0 0" fill="#f6a43b" fill-rule="evenodd"/>
<path transform="matrix(1,0,0,-1,316.9736,71.2905)" d="M0 0 2.214-1.318C2.425-1.442 2.674-1.431 2.87-1.288 3.067-1.144 3.155-.912 3.103-.673L2.534 1.84C2.484 2.059 2.554 2.271 2.722 2.418L4.66 4.12C4.842 4.28 4.908 4.521 4.832 4.752 4.759 4.983 4.562 5.139 4.32 5.161L1.754 5.398C1.531 5.418 1.35 5.55 1.261 5.757L.243 8.123C.147 8.348-.061 8.484-.304 8.484-.548 8.484-.756 8.348-.853 8.123L-1.871 5.757C-1.959 5.55-2.141 5.418-2.363 5.398L-4.93 5.161C-5.173 5.139-5.366 4.983-5.442 4.752-5.517 4.521-5.45 4.28-5.268 4.12L-3.332 2.418C-3.163 2.271-3.094 2.059-3.142 1.84L-3.711-.673C-3.765-.912-3.676-1.144-3.479-1.288-3.283-1.431-3.034-1.442-2.824-1.318L-.609 0C-.416 .115-.193 .115 0 0" fill="#835ba1" fill-rule="evenodd"/>
<path transform="matrix(1,0,0,-1,332.6992,121.3887)" d="M0 0 2.215-1.317C2.424-1.442 2.673-1.431 2.87-1.288 3.066-1.145 3.154-.912 3.102-.673L2.533 1.84C2.483 2.059 2.553 2.271 2.722 2.418L4.659 4.12C4.842 4.279 4.908 4.521 4.832 4.752 4.758 4.983 4.562 5.14 4.32 5.161L1.754 5.397C1.53 5.418 1.349 5.549 1.262 5.756L.242 8.123C.147 8.348-.061 8.484-.305 8.484-.549 8.484-.756 8.348-.854 8.123L-1.872 5.756C-1.96 5.549-2.14 5.418-2.364 5.397L-4.93 5.161C-5.173 5.14-5.367 4.983-5.443 4.752-5.518 4.521-5.451 4.279-5.269 4.12L-3.332 2.418C-3.162 2.271-3.093 2.059-3.143 1.84L-3.711-.673C-3.765-.912-3.676-1.145-3.479-1.288-3.284-1.431-3.034-1.442-2.824-1.317L-.609 0C-.417 .115-.193 .115 0 0" fill="#eb6670" fill-rule="evenodd"/>
<path transform="matrix(1,0,0,-1,320.8799,154.3862)" d="M0 0 2.214-1.317C2.425-1.441 2.674-1.431 2.87-1.288 3.067-1.144 3.155-.911 3.102-.674L2.533 1.84C2.484 2.06 2.554 2.273 2.722 2.42L4.659 4.12C4.842 4.281 4.908 4.521 4.833 4.752 4.758 4.984 4.562 5.139 4.32 5.162L1.754 5.397C1.531 5.418 1.35 5.55 1.26 5.757L.243 8.125C.147 8.348-.061 8.485-.306 8.485-.548 8.485-.756 8.348-.853 8.125L-1.871 5.757C-1.959 5.55-2.14 5.418-2.363 5.397L-4.93 5.162C-5.173 5.139-5.366 4.984-5.442 4.752-5.518 4.521-5.451 4.281-5.268 4.12L-3.332 2.42C-3.163 2.273-3.094 2.06-3.143 1.84L-3.711-.674C-3.765-.911-3.677-1.144-3.479-1.288-3.283-1.431-3.034-1.441-2.824-1.317L-.609 0C-.416 .116-.193 .116 0 0" fill="#c4d33a" fill-rule="evenodd"/>
<path transform="matrix(1,0,0,-1,281.2363,173.81201)" d="M0 0 2.215-1.317C2.424-1.442 2.674-1.431 2.871-1.288 3.066-1.145 3.155-.912 3.101-.674L2.533 1.84C2.484 2.059 2.554 2.271 2.722 2.419L4.659 4.12C4.842 4.279 4.908 4.521 4.832 4.752 4.757 4.983 4.563 5.14 4.319 5.161L1.754 5.397C1.53 5.418 1.351 5.549 1.261 5.757L.244 8.123C.147 8.348-.061 8.484-.305 8.484-.549 8.484-.756 8.348-.853 8.123L-1.871 5.757C-1.96 5.549-2.141 5.418-2.363 5.397L-4.93 5.161C-5.173 5.14-5.367 4.983-5.442 4.752-5.518 4.521-5.451 4.279-5.269 4.12L-3.331 2.419C-3.162 2.271-3.093 2.059-3.143 1.84L-3.711-.674C-3.764-.912-3.676-1.145-3.479-1.288-3.282-1.431-3.034-1.442-2.824-1.317L-.609 0C-.416 .115-.192 .115 0 0" fill="#c4d33a" fill-rule="evenodd"/>
<path transform="matrix(1,0,0,-1,253.7598,63.431215)" d="M0 0 1.273-.757C1.395-.828 1.537-.821 1.65-.739 1.763-.657 1.813-.524 1.782-.387L1.456 1.058C1.428 1.183 1.468 1.306 1.564 1.39L2.678 2.367C2.783 2.459 2.82 2.599 2.777 2.73 2.733 2.865 2.622 2.954 2.482 2.965L1.008 3.102C.88 3.113 .775 3.189 .726 3.308L.14 4.669C.086 4.797-.035 4.876-.175 4.876-.314 4.876-.435 4.797-.489 4.669L-1.074 3.308C-1.125 3.189-1.229 3.113-1.357 3.102L-2.832 2.965C-2.972 2.954-3.083 2.865-3.127 2.73-3.17 2.599-3.132 2.459-3.027 2.367L-1.914 1.39C-1.817 1.306-1.778 1.183-1.806 1.058L-2.132-.387C-2.163-.524-2.113-.657-2-.739-1.885-.821-1.743-.828-1.623-.757L-.35 0C-.238 .065-.111 .065 0 0" fill="#1eb6cd" fill-rule="evenodd"/>
<path transform="matrix(1,0,0,-1,282.1553,52.727998)" d="M0 0 1.272-.757C1.393-.829 1.537-.822 1.649-.739 1.762-.657 1.813-.524 1.782-.387L1.455 1.058C1.428 1.184 1.467 1.305 1.563 1.391L2.678 2.368C2.782 2.46 2.819 2.598 2.777 2.731 2.734 2.864 2.622 2.954 2.482 2.966L1.008 3.102C.879 3.113 .775 3.189 .725 3.307L.14 4.668C.085 4.797-.035 4.875-.175 4.875-.315 4.875-.435 4.797-.49 4.668L-1.074 3.307C-1.125 3.189-1.229 3.113-1.358 3.102L-2.832 2.966C-2.973 2.954-3.085 2.864-3.127 2.731-3.171 2.598-3.133 2.46-3.028 2.368L-1.915 1.391C-1.817 1.305-1.778 1.184-1.808 1.058L-2.132-.387C-2.164-.524-2.114-.657-2-.739-1.887-.822-1.743-.829-1.623-.757L-.35 0C-.24 .066-.111 .066 0 0" fill="#eb6670" fill-rule="evenodd"/>
<path transform="matrix(1,0,0,-1,319.2764,52.370607)" d="M0 0 1.271-.757C1.393-.829 1.535-.822 1.648-.739 1.763-.657 1.812-.524 1.782-.388L1.456 1.058C1.427 1.184 1.466 1.305 1.563 1.39L2.677 2.367C2.782 2.459 2.819 2.598 2.776 2.731 2.733 2.865 2.621 2.954 2.48 2.966L1.007 3.102C.879 3.113 .775 3.19 .724 3.308L.139 4.669C.084 4.797-.036 4.876-.176 4.876-.315 4.876-.436 4.797-.491 4.669L-1.076 3.308C-1.127 3.19-1.23 3.113-1.359 3.102L-2.834 2.966C-2.973 2.954-3.085 2.865-3.128 2.731-3.171 2.598-3.134 2.459-3.028 2.367L-1.914 1.39C-1.817 1.305-1.777 1.184-1.807 1.058L-2.134-.388C-2.164-.524-2.115-.657-2-.739-1.887-.822-1.744-.829-1.624-.757L-.351 0C-.239 .066-.111 .066 0 0" fill="#c4d33a" fill-rule="evenodd"/>
<path transform="matrix(1,0,0,-1,328.3203,88.56741)" d="M0 0 1.272-.755C1.394-.828 1.536-.821 1.651-.739 1.763-.657 1.813-.522 1.782-.386L1.456 1.059C1.429 1.184 1.467 1.307 1.563 1.392L2.677 2.368C2.782 2.461 2.82 2.599 2.777 2.731 2.733 2.865 2.623 2.955 2.483 2.967L1.008 3.102C.88 3.114 .775 3.191 .725 3.31L.14 4.669C.085 4.798-.035 4.876-.175 4.876-.314 4.876-.434 4.798-.489 4.669L-1.075 3.31C-1.126 3.191-1.229 3.114-1.358 3.102L-2.833 2.967C-2.972 2.955-3.084 2.865-3.127 2.731-3.17 2.599-3.133 2.461-3.027 2.368L-1.914 1.392C-1.816 1.307-1.777 1.184-1.807 1.059L-2.133-.386C-2.163-.522-2.113-.657-2-.739-1.886-.821-1.744-.828-1.624-.755L-.351 0C-.239 .066-.111 .066 0 0" fill="#a9569c" fill-rule="evenodd"/>
<path transform="matrix(1,0,0,-1,342.7227,108.2612)" d="M0 0 1.271-.757C1.394-.828 1.537-.822 1.648-.739 1.763-.657 1.813-.524 1.782-.387L1.456 1.058C1.427 1.184 1.467 1.306 1.563 1.39L2.677 2.367C2.782 2.459 2.82 2.598 2.777 2.73 2.733 2.865 2.621 2.954 2.482 2.966L1.008 3.102C.879 3.113 .775 3.19 .724 3.308L.14 4.669C.085 4.797-.036 4.876-.175 4.876-.314 4.876-.435 4.797-.489 4.669L-1.076 3.308C-1.126 3.19-1.23 3.113-1.357 3.102L-2.832 2.966C-2.973 2.954-3.085 2.865-3.128 2.73-3.17 2.598-3.134 2.459-3.028 2.367L-1.914 1.39C-1.817 1.306-1.777 1.184-1.807 1.058L-2.134-.387C-2.163-.524-2.113-.657-2-.739-1.887-.822-1.744-.828-1.624-.757L-.351 0C-.239 .065-.111 .065 0 0" fill="#1eb6cd" fill-rule="evenodd"/>
<path transform="matrix(1,0,0,-1,331.5137,137.87259)" d="M0 0 1.272-.757C1.394-.829 1.537-.822 1.65-.739 1.763-.657 1.813-.524 1.782-.387L1.456 1.058C1.428 1.184 1.468 1.306 1.564 1.391L2.678 2.368C2.782 2.46 2.82 2.598 2.777 2.731 2.733 2.864 2.622 2.954 2.482 2.966L1.008 3.102C.88 3.113 .775 3.189 .725 3.308L.14 4.669C.086 4.797-.034 4.876-.175 4.876-.314 4.876-.434 4.797-.489 4.669L-1.074 3.308C-1.126 3.189-1.23 3.113-1.357 3.102L-2.832 2.966C-2.972 2.954-3.084 2.864-3.127 2.731-3.17 2.598-3.132 2.46-3.027 2.368L-1.914 1.391C-1.816 1.306-1.777 1.184-1.807 1.058L-2.133-.387C-2.163-.524-2.113-.657-2-.739-1.886-.822-1.743-.829-1.623-.757L-.35 0C-.238 .066-.111 .066 0 0" fill="#1eb6cd" fill-rule="evenodd"/>
<path transform="matrix(1,0,0,-1,307.79,179.73001)" d="M0 0 1.272-.756C1.394-.828 1.536-.821 1.649-.739 1.763-.657 1.813-.523 1.783-.386L1.457 1.058C1.428 1.184 1.467 1.306 1.564 1.392L2.678 2.368C2.783 2.461 2.82 2.598 2.777 2.731 2.734 2.865 2.622 2.954 2.481 2.967L1.008 3.103C.881 3.115 .776 3.19 .726 3.308L.14 4.669C.085 4.797-.035 4.876-.175 4.876-.315 4.876-.435 4.797-.49 4.669L-1.074 3.308C-1.126 3.19-1.229 3.115-1.358 3.103L-2.832 2.967C-2.973 2.954-3.084 2.865-3.128 2.731-3.17 2.598-3.133 2.461-3.027 2.368L-1.913 1.392C-1.817 1.306-1.778 1.184-1.806 1.058L-2.133-.386C-2.163-.523-2.113-.657-2-.739-1.887-.821-1.743-.828-1.623-.756L-.35 0C-.238 .066-.11 .066 0 0" fill="#e54490" fill-rule="evenodd"/>
<path transform="matrix(1,0,0,-1,260.6279,186.86081)" d="M0 0 1.271-.757C1.393-.829 1.535-.822 1.648-.74 1.761-.658 1.813-.523 1.782-.387L1.455 1.057C1.426 1.184 1.466 1.307 1.563 1.391L2.677 2.368C2.782 2.46 2.819 2.598 2.775 2.731 2.733 2.864 2.621 2.953 2.481 2.966L1.006 3.102C.879 3.113 .774 3.19 .725 3.309L.139 4.669C.084 4.797-.036 4.875-.177 4.875-.315 4.875-.436 4.797-.491 4.669L-1.075 3.309C-1.127 3.19-1.23 3.113-1.359 3.102L-2.833 2.966C-2.973 2.953-3.085 2.864-3.129 2.731-3.172 2.598-3.133 2.46-3.028 2.368L-1.915 1.391C-1.818 1.307-1.778 1.184-1.808 1.057L-2.134-.387C-2.165-.523-2.114-.658-2-.74-1.888-.822-1.744-.829-1.624-.757L-.352 0C-.24 .066-.111 .066 0 0" fill="#e54490" fill-rule="evenodd"/>
<path transform="matrix(1,0,0,-1,283.9385,188.854)" d="M0 0 1.271-.757C1.394-.829 1.535-.822 1.649-.74 1.761-.657 1.812-.524 1.782-.388L1.455 1.058C1.427 1.184 1.466 1.306 1.563 1.39L2.677 2.367C2.782 2.459 2.819 2.598 2.776 2.73 2.733 2.864 2.621 2.954 2.482 2.966L1.008 3.102C.879 3.113 .775 3.189 .725 3.308L.139 4.669C.084 4.797-.036 4.876-.176 4.876-.316 4.876-.436 4.797-.49 4.669L-1.075 3.308C-1.126 3.189-1.23 3.113-1.358 3.102L-2.833 2.966C-2.974 2.954-3.085 2.864-3.127 2.73-3.171 2.598-3.133 2.459-3.027 2.367L-1.915 1.39C-1.817 1.306-1.779 1.184-1.807 1.058L-2.133-.388C-2.164-.524-2.113-.657-2.002-.74-1.887-.822-1.744-.829-1.624-.757L-.351 0C-.24 .065-.111 .065 0 0" fill="#1eb6cd" fill-rule="evenodd"/>
<path transform="matrix(1,0,0,-1,195.8945,100.950199)" d="M0 0 1.738-1.034C1.903-1.132 2.097-1.123 2.253-1.011 2.406-.898 2.476-.715 2.434-.529L1.988 1.444C1.949 1.615 2.002 1.782 2.135 1.898L3.656 3.232C3.8 3.358 3.851 3.547 3.792 3.728 3.732 3.91 3.58 4.032 3.389 4.049L1.376 4.235C1.201 4.25 1.059 4.355 .989 4.516L.191 6.375C.116 6.549-.048 6.657-.239 6.657-.43 6.657-.593 6.549-.669 6.375L-1.468 4.516C-1.537 4.355-1.679 4.25-1.854 4.235L-3.867 4.049C-4.057 4.032-4.21 3.91-4.27 3.728-4.329 3.547-4.276 3.358-4.133 3.232L-2.613 1.898C-2.48 1.782-2.426 1.615-2.465 1.444L-2.912-.529C-2.953-.715-2.885-.898-2.73-1.011-2.575-1.123-2.38-1.132-2.216-1.034L-.478 0C-.326 .09-.151 .09 0 0" fill="#f6a43b" fill-rule="evenodd"/>
<path transform="matrix(1,0,0,-1,214.4521,73.7139)" d="M0 0 1.272-.757C1.394-.829 1.536-.823 1.649-.741 1.763-.659 1.813-.524 1.783-.388L1.456 1.058C1.427 1.183 1.467 1.306 1.564 1.39L2.677 2.367C2.782 2.459 2.82 2.597 2.777 2.73 2.734 2.863 2.622 2.953 2.483 2.965L1.008 3.102C.88 3.114 .776 3.19 .725 3.308L.14 4.668C.084 4.797-.036 4.875-.175 4.875-.315 4.875-.435 4.797-.49 4.668L-1.075 3.308C-1.126 3.19-1.23 3.114-1.357 3.102L-2.832 2.965C-2.972 2.953-3.084 2.863-3.127 2.73-3.169 2.597-3.133 2.459-3.027 2.367L-1.914 1.39C-1.817 1.306-1.777 1.183-1.807 1.058L-2.133-.388C-2.163-.524-2.113-.659-2-.741-1.886-.823-1.744-.829-1.624-.757L-.351 0C-.239 .065-.111 .065 0 0" fill="#e54490" fill-rule="evenodd"/>
<path transform="matrix(1,0,0,-1,218.2358,57.29831)" d="M0 0 1.271-.757C1.393-.829 1.536-.822 1.649-.739 1.762-.657 1.813-.524 1.782-.387L1.456 1.058C1.427 1.184 1.466 1.306 1.563 1.391L2.676 2.368C2.782 2.46 2.82 2.599 2.776 2.731 2.733 2.865 2.621 2.954 2.482 2.966L1.008 3.102C.879 3.113 .775 3.189 .724 3.308L.14 4.669C.084 4.797-.036 4.876-.175 4.876-.315 4.876-.434 4.797-.491 4.669L-1.075 3.308C-1.126 3.189-1.23 3.113-1.359 3.102L-2.833 2.966C-2.972 2.954-3.085 2.865-3.127 2.731-3.171 2.599-3.133 2.46-3.028 2.368L-1.915 1.391C-1.817 1.306-1.778 1.184-1.807 1.058L-2.133-.387C-2.165-.524-2.113-.657-2-.739-1.887-.822-1.744-.829-1.624-.757L-.351 0C-.24 .066-.111 .066 0 0" fill="#a9569c" fill-rule="evenodd"/>
<path transform="matrix(1,0,0,-1,193.8521,81.93411)" d="M0 0 1.133-.674C1.239-.737 1.367-.732 1.468-.659 1.567-.586 1.613-.467 1.585-.344L1.295 .94C1.271 1.052 1.305 1.162 1.391 1.237L2.382 2.106C2.477 2.188 2.509 2.311 2.471 2.429 2.433 2.548 2.333 2.626 2.209 2.64L.897 2.76C.782 2.771 .691 2.837 .645 2.944L.124 4.154C.077 4.268-.031 4.337-.156 4.337-.281 4.337-.387 4.268-.437 4.154L-.958 2.944C-1.002 2.837-1.095 2.771-1.21 2.76L-2.522 2.64C-2.645 2.626-2.745 2.548-2.784 2.429-2.821 2.311-2.788 2.188-2.694 2.106L-1.704 1.237C-1.618 1.162-1.583 1.052-1.607 .94L-1.899-.344C-1.926-.467-1.88-.586-1.78-.659-1.679-.732-1.552-.737-1.445-.674L-.312 0C-.214 .059-.098 .059 0 0" fill="#1eb6cd" fill-rule="evenodd"/>
<path transform="matrix(1,0,0,-1,198.6235,67.72119)" d="M0 0 .653-.388C.714-.425 .787-.421 .845-.378 .903-.338 .93-.269 .913-.199L.745 .542C.731 .606 .752 .669 .801 .713L1.373 1.214C1.427 1.26 1.445 1.333 1.424 1.399 1.402 1.467 1.344 1.514 1.273 1.521L.516 1.59C.451 1.596 .398 1.635 .372 1.696L.072 2.394C.044 2.458-.018 2.499-.09 2.499-.162 2.499-.222 2.458-.251 2.394L-.55 1.696C-.578 1.635-.631 1.596-.697 1.59L-1.453 1.521C-1.523 1.514-1.582 1.467-1.603 1.399-1.625 1.333-1.606 1.26-1.552 1.214L-.981 .713C-.932 .669-.912 .606-.926 .542L-1.094-.199C-1.108-.269-1.083-.338-1.025-.378-.967-.421-.893-.425-.832-.388L-.179 0C-.123 .033-.057 .033 0 0" fill="#eb6670" fill-rule="evenodd"/>
<path transform="matrix(1,0,0,-1,255.3604,46.75241)" d="M0 0 .652-.388C.715-.424 .788-.421 .846-.379 .903-.337 .931-.269 .914-.199L.746 .542C.732 .607 .752 .669 .802 .713L1.372 1.214C1.428 1.261 1.447 1.332 1.424 1.4 1.401 1.468 1.344 1.515 1.273 1.521L.518 1.591C.451 1.597 .398 1.635 .371 1.696L.071 2.394C.044 2.459-.018 2.5-.089 2.5-.16 2.5-.223 2.459-.25 2.394L-.551 1.696C-.577 1.635-.629 1.597-.695 1.591L-1.452 1.521C-1.523 1.515-1.581 1.468-1.602 1.4-1.625 1.332-1.605 1.261-1.551 1.214L-.98 .713C-.931 .669-.911 .607-.926 .542L-1.094-.199C-1.108-.269-1.082-.337-1.024-.379-.967-.421-.894-.424-.832-.388L-.18 0C-.122 .034-.056 .034 0 0" fill="#a9569c" fill-rule="evenodd"/>
<path transform="matrix(1,0,0,-1,240.8022,46.544404)" d="M0 0 .653-.388C.714-.425 .787-.421 .845-.378 .903-.336 .93-.269 .914-.198L.745 .543C.733 .606 .752 .67 .802 .713L1.373 1.214C1.426 1.26 1.446 1.332 1.424 1.399 1.401 1.469 1.344 1.514 1.273 1.521L.516 1.59C.451 1.597 .398 1.635 .371 1.695L.072 2.394C.044 2.459-.017 2.5-.09 2.5-.162 2.5-.222 2.459-.251 2.394L-.551 1.695C-.578 1.635-.63 1.597-.696 1.59L-1.452 1.521C-1.523 1.514-1.581 1.469-1.603 1.399-1.625 1.332-1.606 1.26-1.552 1.214L-.981 .713C-.932 .67-.912 .606-.926 .543L-1.093-.198C-1.109-.269-1.083-.336-1.025-.378-.967-.421-.894-.425-.833-.388L-.179 0C-.123 .034-.056 .034 0 0" fill="#eb6670" fill-rule="evenodd"/>
<path transform="matrix(1,0,0,-1,269.5225,42.709505)" d="M0 0 .654-.387C.715-.423 .788-.421 .846-.378 .904-.336 .931-.268 .915-.197L.746 .543C.732 .607 .752 .671 .802 .713L1.373 1.214C1.427 1.262 1.446 1.333 1.424 1.4 1.403 1.469 1.345 1.514 1.274 1.522L.518 1.592C.452 1.597 .399 1.636 .373 1.697L.072 2.394C.045 2.459-.017 2.5-.089 2.5-.161 2.5-.222 2.459-.25 2.394L-.55 1.697C-.576 1.636-.63 1.597-.695 1.592L-1.451 1.522C-1.521 1.514-1.581 1.469-1.602 1.4-1.625 1.333-1.605 1.262-1.551 1.214L-.98 .713C-.931 .671-.911 .607-.925 .543L-1.093-.197C-1.108-.268-1.082-.336-1.024-.378-.966-.421-.894-.423-.831-.387L-.178 0C-.122 .034-.056 .034 0 0" fill="#eb6670" fill-rule="evenodd"/>
<path transform="matrix(1,0,0,-1,188.2017,113.6655)" d="M0 0 1.105-.657C1.21-.718 1.333-.713 1.432-.641 1.53-.571 1.574-.454 1.546-.336L1.264 .918C1.24 1.026 1.273 1.133 1.358 1.207L2.324 2.054C2.416 2.134 2.448 2.253 2.41 2.369 2.374 2.484 2.275 2.562 2.155 2.574L.875 2.69C.765 2.702 .675 2.767 .631 2.87L.122 4.05C.076 4.161-.029 4.229-.15 4.229-.272 4.229-.375 4.161-.423 4.05L-.932 2.87C-.976 2.767-1.066 2.702-1.177 2.69L-2.457 2.574C-2.577 2.562-2.674 2.484-2.712 2.369-2.748 2.253-2.716 2.134-2.625 2.054L-1.658 1.207C-1.575 1.133-1.542 1.026-1.567 .918L-1.85-.336C-1.875-.454-1.831-.571-1.733-.641-1.635-.713-1.511-.718-1.407-.657L-.302 0C-.207 .058-.095 .058 0 0" fill="#e54490" fill-rule="evenodd"/>
<path transform="matrix(1,0,0,-1,240.7085,178.78171)" d="M0 0 .654-.388C.715-.423 .788-.421 .846-.378 .904-.337 .931-.267 .914-.198L.747 .542C.733 .606 .752 .67 .802 .713L1.373 1.214C1.427 1.262 1.446 1.332 1.425 1.4 1.403 1.469 1.345 1.515 1.274 1.521L.518 1.59C.453 1.597 .398 1.635 .373 1.697L.072 2.395C.045 2.459-.018 2.5-.089 2.5-.161 2.5-.222 2.459-.25 2.395L-.55 1.697C-.576 1.635-.629 1.597-.695 1.59L-1.451 1.521C-1.523 1.515-1.581 1.469-1.602 1.4-1.625 1.332-1.605 1.262-1.55 1.214L-.98 .713C-.93 .67-.911 .606-.926 .542L-1.092-.198C-1.108-.267-1.082-.337-1.024-.378-.966-.421-.892-.423-.831-.388L-.178 0C-.122 .035-.056 .035 0 0" fill="#e54490" fill-rule="evenodd"/>
<path transform="matrix(1,0,0,-1,274.2578,192.07959)" d="M0 0 .651-.389C.715-.424 .787-.421 .846-.379 .903-.338 .93-.268 .914-.199L.746 .542C.731 .606 .753 .669 .802 .713L1.373 1.213C1.427 1.261 1.446 1.331 1.423 1.399 1.402 1.468 1.345 1.514 1.272 1.521L.517 1.59C.451 1.596 .397 1.634 .372 1.696L.071 2.394C.043 2.458-.018 2.499-.09 2.499-.161 2.499-.223 2.458-.251 2.394L-.552 1.696C-.577 1.634-.63 1.596-.696 1.59L-1.452 1.521C-1.523 1.514-1.581 1.468-1.603 1.399-1.625 1.331-1.605 1.261-1.552 1.213L-.98 .713C-.931 .669-.911 .606-.927 .542L-1.093-.199C-1.108-.268-1.083-.338-1.024-.379-.967-.421-.895-.424-.832-.389L-.179 0C-.123 .034-.056 .034 0 0" fill="#f6a43b" fill-rule="evenodd"/>
<path transform="matrix(1,0,0,-1,292.5469,181.1821)" d="M0 0 .653-.388C.715-.424 .789-.421 .847-.378 .904-.336 .93-.269 .914-.199L.747 .542C.733 .606 .753 .67 .803 .713L1.373 1.214C1.428 1.261 1.447 1.333 1.425 1.399 1.402 1.469 1.344 1.514 1.273 1.521L.518 1.59C.452 1.596 .399 1.635 .372 1.696L.072 2.394C.045 2.459-.017 2.499-.089 2.499-.16 2.499-.222 2.459-.25 2.394L-.55 1.696C-.577 1.635-.63 1.596-.696 1.59L-1.452 1.521C-1.522 1.514-1.58 1.469-1.603 1.399-1.624 1.333-1.604 1.261-1.552 1.214L-.979 .713C-.931 .67-.91 .606-.925 .542L-1.093-.199C-1.108-.269-1.083-.336-1.024-.378-.966-.421-.893-.424-.832-.388L-.179 0C-.122 .034-.056 .034 0 0" fill="#f6a43b" fill-rule="evenodd"/>
<path transform="matrix(1,0,0,-1,329.0371,164.3599)" d="M0 0 .652-.388C.714-.424 .787-.421 .845-.379 .902-.337 .929-.269 .912-.198L.745 .542C.731 .606 .752 .669 .801 .713L1.372 1.214C1.426 1.261 1.445 1.332 1.424 1.4 1.401 1.468 1.344 1.513 1.272 1.52L.516 1.589C.451 1.596 .398 1.635 .371 1.696L.072 2.393C.044 2.459-.019 2.5-.091 2.5-.162 2.5-.222 2.459-.251 2.393L-.551 1.696C-.578 1.635-.631 1.596-.697 1.589L-1.453 1.52C-1.523 1.513-1.581 1.468-1.603 1.4-1.625 1.332-1.606 1.261-1.552 1.214L-.981 .713C-.932 .669-.912 .606-.926 .542L-1.094-.198C-1.109-.269-1.083-.337-1.025-.379-.968-.421-.894-.424-.832-.388L-.18 0C-.124 .034-.057 .034 0 0" fill="#f6a43b" fill-rule="evenodd"/>
<path transform="matrix(1,0,0,-1,348.7705,123.6528)" d="M0 0 .652-.387C.714-.424 .787-.421 .845-.378 .903-.337 .93-.268 .913-.197L.745 .542C.731 .607 .752 .671 .801 .713L1.372 1.214C1.427 1.261 1.445 1.333 1.424 1.399 1.401 1.468 1.344 1.514 1.273 1.521L.518 1.591C.451 1.596 .398 1.636 .371 1.696L.072 2.394C.044 2.459-.019 2.499-.091 2.499-.162 2.499-.222 2.459-.251 2.394L-.551 1.696C-.578 1.636-.631 1.596-.697 1.591L-1.452 1.521C-1.523 1.514-1.581 1.468-1.603 1.399-1.625 1.333-1.606 1.261-1.552 1.214L-.981 .713C-.932 .671-.912 .607-.926 .542L-1.094-.197C-1.108-.268-1.083-.337-1.025-.378-.967-.421-.894-.424-.832-.387L-.18 0C-.123 .034-.057 .034 0 0" fill="#f5a021" fill-rule="evenodd"/>
<path transform="matrix(1,0,0,-1,348.8154,95.33539)" d="M0 0 .653-.387C.715-.423 .787-.421 .845-.378 .903-.336 .93-.268 .913-.197L.746 .543C.732 .607 .753 .671 .802 .713L1.373 1.214C1.426 1.262 1.445 1.333 1.424 1.4 1.401 1.469 1.344 1.515 1.273 1.521L.517 1.591C.452 1.597 .398 1.636 .372 1.697L.072 2.395C.043 2.459-.019 2.5-.09 2.5-.162 2.5-.222 2.459-.251 2.395L-.551 1.697C-.577 1.636-.631 1.597-.696 1.591L-1.452 1.521C-1.522 1.515-1.58 1.469-1.603 1.4-1.625 1.333-1.606 1.262-1.552 1.214L-.981 .713C-.932 .671-.912 .607-.926 .543L-1.094-.197C-1.108-.268-1.083-.336-1.025-.378-.968-.421-.895-.423-.832-.387L-.179 0C-.122 .035-.057 .035 0 0" fill="#a9569c" fill-rule="evenodd"/>
<path transform="matrix(1,0,0,-1,330.5488,73.918)" d="M0 0 .652-.388C.715-.424 .787-.421 .846-.378 .903-.337 .929-.268 .914-.199L.746 .542C.731 .607 .752 .669 .802 .713L1.372 1.214C1.427 1.261 1.446 1.333 1.423 1.4 1.402 1.469 1.345 1.514 1.272 1.521L.517 1.591C.451 1.596 .397 1.636 .372 1.696L.071 2.394C.044 2.458-.018 2.499-.09 2.499-.161 2.499-.223 2.458-.25 2.394L-.552 1.696C-.577 1.636-.63 1.596-.696 1.591L-1.452 1.521C-1.523 1.514-1.581 1.469-1.603 1.4-1.625 1.333-1.605 1.261-1.553 1.214L-.98 .713C-.933 .669-.911 .607-.927 .542L-1.093-.199C-1.109-.268-1.082-.337-1.024-.378-.967-.421-.894-.424-.831-.388L-.179 0C-.123 .034-.056 .034 0 0" fill="#835ba1" fill-rule="evenodd"/>
<path transform="matrix(1,0,0,-1,195.6665,151.91211)" d="M0 0 .653-.388C.714-.424 .788-.421 .846-.378 .904-.337 .93-.269 .913-.198L.747 .543C.732 .606 .752 .67 .801 .713L1.373 1.214C1.428 1.262 1.445 1.332 1.424 1.4 1.401 1.469 1.344 1.515 1.273 1.521L.518 1.59C.452 1.597 .398 1.635 .372 1.697L.072 2.395C.044 2.459-.019 2.5-.09 2.5-.161 2.5-.222 2.459-.251 2.395L-.551 1.697C-.577 1.635-.63 1.597-.696 1.59L-1.452 1.521C-1.523 1.515-1.581 1.469-1.603 1.4-1.625 1.332-1.605 1.262-1.552 1.214L-.98 .713C-.932 .67-.911 .606-.926 .543L-1.094-.198C-1.108-.269-1.083-.337-1.025-.378-.967-.421-.893-.424-.832-.388L-.179 0C-.123 .035-.057 .035 0 0" fill="#f6a43b" fill-rule="evenodd"/>
<path transform="matrix(1,0,0,-1,239.939,130.1763)" d="M0 0 2.025-1.204C2.215-1.318 2.446-1.303 2.625-1.175 2.804-1.045 2.88-.834 2.833-.617L2.314 1.679C2.271 1.875 2.335 2.074 2.492 2.21L4.259 3.763C4.427 3.906 4.487 4.126 4.419 4.339 4.35 4.55 4.169 4.694 3.949 4.713L1.605 4.93C1.405 4.95 1.236 5.069 1.154 5.257L.226 7.421C.14 7.625-.05 7.748-.274 7.748-.498 7.748-.69 7.62-.774 7.421L-1.707 5.257C-1.786 5.071-1.955 4.948-2.155 4.93L-4.502 4.713C-4.717 4.696-4.896 4.55-4.966 4.339-5.033 4.126-4.974 3.908-4.805 3.763L-3.038 2.21C-2.882 2.078-2.827 1.875-2.87 1.679L-3.389-.617C-3.438-.832-3.351-1.045-3.171-1.175-2.992-1.303-2.767-1.318-2.579-1.204L-.554 0C-.375 .105-.171 .098 0 0" fill="#835ba1" fill-rule="evenodd"/>
<path transform="matrix(1,0,0,-1,274.1787,117.1958)" d="M0 0 8.39-4.989C9.185-5.461 10.128-5.418 10.872-4.878 11.618-4.335 11.951-3.454 11.749-2.552L9.596 6.972C9.409 7.802 9.672 8.607 10.31 9.167L17.649 15.608C18.341 16.214 18.593 17.126 18.308 18.002 18.022 18.879 17.283 19.471 16.364 19.553L6.644 20.45C5.798 20.526 5.112 21.026 4.775 21.808L.919 30.778C.558 31.625-.232 32.144-1.155 32.144-2.079 32.144-2.866 31.625-3.23 30.778L-7.089 21.808C-7.424 21.026-8.11 20.526-8.954 20.45L-18.676 19.553C-19.596 19.471-20.335 18.879-20.619 18.002-20.903 17.126-20.652 16.214-19.958 15.608L-12.622 9.167C-11.981 8.607-11.72 7.802-11.908 6.972L-14.062-2.552C-14.265-3.454-13.931-4.335-13.185-4.878-12.437-5.418-11.495-5.461-10.7-4.989L-2.311 0C-1.579 .436-.732 .436 0 0" fill="#835ba1" fill-rule="evenodd"/>
<path transform="matrix(1,0,0,-1,214.9014,144.20511)" d="M0 0 3.14-1.868C3.438-2.044 3.79-2.028 4.069-1.827 4.348-1.624 4.473-1.292 4.397-.956L3.591 2.609C3.521 2.92 3.619 3.221 3.859 3.431L6.606 5.842C6.865 6.069 6.959 6.409 6.853 6.737 6.746 7.066 6.468 7.286 6.125 7.318L2.486 7.654C2.17 7.684 1.912 7.869 1.787 8.163L.342 11.521C.208 11.838-.088 12.031-.433 12.031-.779 12.031-1.074 11.838-1.211 11.521L-2.654 8.163C-2.779 7.871-3.037 7.683-3.353 7.654L-6.99 7.318C-7.335 7.286-7.612 7.066-7.718 6.737-7.825 6.409-7.731 6.069-7.472 5.842L-4.724 3.431C-4.486 3.222-4.389 2.918-4.458 2.609L-5.265-.956C-5.34-1.292-5.215-1.624-4.935-1.827-4.656-2.028-4.303-2.045-4.006-1.868L-.864 0C-.591 .163-.274 .163 0 0" fill="#f6a43b" fill-rule="evenodd"/>
<path transform="matrix(1,0,0,-1,224.8403,117.94141)" d="M0 0 5.141-3.058C5.627-3.346 6.206-3.318 6.662-2.988 7.119-2.657 7.323-2.115 7.199-1.564L5.879 4.271C5.765 4.779 5.926 5.273 6.317 5.616L10.813 9.561C11.238 9.933 11.392 10.491 11.216 11.029 11.042 11.567 10.588 11.928 10.026 11.979L4.071 12.528C3.553 12.576 3.132 12.881 2.927 13.36L.564 18.854C.343 19.374-.141 19.691-.707 19.691-1.273 19.691-1.754 19.374-1.979 18.854L-4.342 13.36C-4.547 12.881-4.968 12.576-5.484 12.528L-11.44 11.979C-12.004 11.928-12.457 11.567-12.631 11.029-12.803 10.491-12.652 9.933-12.226 9.561L-7.732 5.616C-7.34 5.273-7.179 4.779-7.293 4.271L-8.614-1.564C-8.736-2.115-8.533-2.657-8.076-2.988-7.618-3.318-7.041-3.346-6.555-3.058L-1.414 0C-.966 .266-.449 .266 0 0" fill="#a9569c" fill-rule="evenodd"/>
<path transform="matrix(1,0,0,-1,207.7051,162.6958)" d="M0 0 2.214-1.317C2.425-1.442 2.673-1.431 2.87-1.289 3.067-1.145 3.155-.912 3.102-.674L2.533 1.84C2.484 2.059 2.553 2.271 2.721 2.42L4.66 4.12C4.841 4.28 4.908 4.521 4.833 4.752 4.758 4.983 4.562 5.139 4.32 5.16L1.753 5.398C1.531 5.418 1.35 5.549 1.26 5.756L.243 8.123C.147 8.348-.062 8.484-.306 8.484-.548 8.484-.756 8.348-.853 8.123L-1.871 5.756C-1.959 5.549-2.141 5.418-2.363 5.398L-4.93 5.16C-5.173 5.139-5.368 4.983-5.443 4.752-5.518 4.521-5.451 4.28-5.268 4.12L-3.332 2.42C-3.163 2.271-3.094 2.059-3.142 1.84L-3.711-.674C-3.765-.912-3.677-1.145-3.48-1.289-3.284-1.431-3.034-1.442-2.825-1.317L-.61 0C-.417 .114-.193 .114 0 0" fill="#c4d33a" fill-rule="evenodd"/>
<path transform="matrix(1,0,0,-1,199.8535,128.6001)" d="M0 0 3.141-1.868C3.439-2.045 3.792-2.029 4.071-1.826 4.35-1.624 4.475-1.292 4.398-.956L3.593 2.609C3.522 2.918 3.621 3.221 3.86 3.431L6.606 5.841C6.866 6.069 6.959 6.411 6.853 6.738 6.747 7.067 6.47 7.288 6.126 7.318L2.486 7.655C2.17 7.684 1.915 7.87 1.789 8.163L.344 11.52C.21 11.837-.086 12.03-.433 12.03-.777 12.03-1.073 11.837-1.209 11.52L-2.652 8.163C-2.778 7.87-3.036 7.684-3.352 7.655L-6.99 7.318C-7.335 7.288-7.611 7.067-7.718 6.738-7.824 6.411-7.73 6.069-7.47 5.841L-4.724 3.431C-4.484 3.221-4.386 2.918-4.457 2.609L-5.263-.956C-5.338-1.292-5.215-1.624-4.935-1.826-4.655-2.029-4.303-2.045-4.005-1.868L-.864 0C-.59 .162-.274 .162 0 0" fill="#eb6670" fill-rule="evenodd"/>
<path transform="matrix(1,0,0,-1,259.4971,132.59961)" d="M0 0C-.277-1.549-12.245-25.739-12.584-28.603-12.584-28.603-5.842-35.251-5.72-47.193-5.589-59.136-5.394-62.221-6.073-67.612-6.962-74.719-6.929-77.075-5.25-80.663-7.098-81.419-8.294-83.12-8.294-83.12L-6.172-82.167C-5.773-82.07-4.271-83.546-4.245-83.676-4.062-84.533-1.486-85.312-.809-86.682-.674-86.944-.955-87.319-.999-87.63-1.428-89.267-2.165-88.079-1.917-87.519-1.696-86.691-3.256-86.464-2.902-87.244-2.45-88.24-2.224-89.104-2.148-89.834-1.995-91.375-3.654-93.388-4.003-92.878-4.62-91.96-2.137-90.407-4.203-88.302-5.268-87.215-2.715-92.477-6.448-93.684-7.255-92.52-4.293-92.004-6.401-88.519-7.291-87.06-5.419-91.953-7.903-92.841-8.883-92.375-6.781-90.776-8.265-88.407-9.273-86.811-9.298-89.596-9.128-90.396-8.67-91.928-9.652-91.621-10.201-90.154-10.486-89.396-10.259-87.97-10.49-87.074L-11.353-84.424C-11.375-84.434-11.393-84.446-11.414-84.453-11.211-93.903-12.472-105.265-14.057-113.051-15.549-120.389-19.41-121.77-19.735-132.513L-21.139-132.4H-21.172L-21.096-134.148-21.03-134.175C-18.521-135.053-16.758-136.522-14.613-137.081-10.409-138.193-6.434-137.883-5.989-139.062-5.816-139.114-5.765-140.541-5.776-140.964-5.781-141.074-5.795-141.179-5.819-141.285-16.743-143.213-30.782-141.371-30.782-141.371-31.313-140.354-31.338-139.089-31.298-138.002-31.219-135.737-31.161-134.784-30.046-133.847-29.847-133.672-29.637-133.52-29.413-133.379L-28.619-131.81-29.503-131.74-29.876-131.711-31.103-131.613C-31.103-131.613-22.115-104.904-25.838-93.86-29.511-82.964-37.495-69.537-23.6-61.13-23.6-61.13-26.614-61.776-29.042-64.283-29.699-60.479-30.789-52.73-30.138-46.151-29.242-37.031-28.344-33.434-28.344-33.434-28.344-33.434-40.482-29.97-40.417-22.907-40.355-15.843-32.197-10.354-30.306-8.848-28.41-7.338-27.514-4.356-27.514-4.356-27.514-4.356-27.048-5.746-27.352-6.617-27.474-6.959-27.568-7.179-27.633-7.32L-26.47-5.312C-26.011-6.002-25.737-6.884-26.2-7.848-26.2-7.848-21.624-9.342-19.503-11.56L-17.452-14.157-15.199-14.558C-14.924-14.875-15.116-15.746-15.116-15.746-14.185-13.792-14.516-13.496-15.932-13.152-15.561-12.593-13.35-6.472-10.58-3.95-7.691-1.318-4.675 2.986-4.675 2.986-4.329 3.253-3.801 2.766-3.418 4.721-2.515 9.288-6.535 9.216-4.506 12.133-4.654 12.979-4.649 13.637-4.675 14.287-4.577 14.723-4.101 15.008-3.82 14.287-3.617 13.773-3.602 13.322-3.498 12.806-2.992 13.412-2.396 12.754-3.144 11.762-2.758 10.934-2.253 10.419-2.253 10.419-2.253 10.419-2.682 12.455-2.425 13.773-2.047 15.723-.41 16.673-1.205 13.835-1.466 12.921-1.078 11.719-.691 10.542 .193 7.843 1.757 6.94 5.924 7.909 6.671 7.757 6.391 6.937 5.123 6.569 2.829 5.901 1.082 4.011-.18 2.366-1.013 3.001-3.094 2.92-3.094 2.92-1.852 2.654 .294 1.618 0 0" fill="#000080" fill-rule="evenodd"/>
</g>
<text fill="#000080" xml:space="preserve" transform="matrix(1 0 -0 1 0 500)" font-size="62.5493" font-family="ZRERXA+BahijPalatinoSansArabic-" font-weight="bold"><tspan y="-129.2832" x="95.2422 146.05727 173.90422 201.7199 229.7545 254.46147 270.98075 278.98707 304.78868 330.03984 352.68269 371.07844">Wonder Yearz</tspan></text>
<text fill="#000080" xml:space="preserve" transform="matrix(1 0 -0 1 0 500)" font-size="40" font-family="ZRERXA+BahijPalatinoSansArabic-" font-weight="bold"><tspan y="-90.7285" x="124.2422 144.8822 167.1862 189.2342 204.39022 218.71022 235.51023 244.87023 266.15425 284.19425 296.41825 316.45426 338.48625 356.60624">Sports Science</tspan></text>
</g>
</svg>
